<?xml version="1.0" standalone="no"?>
<!DOCTYPE svg PUBLIC "-//W3C//DTD SVG 20010904//EN"
 "http://www.w3.org/TR/2001/REC-SVG-20010904/DTD/svg10.dtd">
<svg version="1.0" xmlns="http://www.w3.org/2000/svg"
 width="2462.000000pt" height="2462.000000pt" viewBox="0 0 2462.000000 2462.000000"
 preserveAspectRatio="xMidYMid meet">
<metadata>
Created by potrace 1.14, written by Peter Selinger 2001-2017
</metadata>
<g transform="translate(0.000000,2462.000000) scale(0.100000,-0.100000)"
fill="#000000" stroke="none">
<path d="M14268 21005 c-3 -3 -36 -8 -74 -11 -38 -3 -82 -7 -99 -9 -16 -2 -57
-6 -90 -10 -114 -11 -136 -15 -146 -20 -5 -4 -9 0 -9 7 0 8 -3 9 -8 3 -4 -6
-20 -10 -37 -11 -47 -2 -159 -16 -167 -21 -5 -2 -8 1 -8 8 0 9 -3 9 -14 -1 -8
-6 -23 -11 -33 -10 -10 1 -20 1 -23 0 -3 -1 -25 -4 -50 -6 -25 -2 -70 -6 -100
-9 -30 -3 -72 -6 -92 -7 -21 -1 -38 -5 -38 -8 0 -3 -19 -6 -43 -7 -67 -2 -158
-10 -212 -18 -27 -4 -70 -9 -95 -10 -25 -2 -45 -4 -45 -5 0 -1 -11 -3 -25 -5
-26 -3 -104 -12 -180 -21 -25 -3 -64 -7 -87 -7 -24 -1 -43 -5 -43 -8 0 -4 -18
-6 -40 -5 -22 1 -40 -1 -40 -4 0 -4 -19 -8 -42 -9 -40 -1 -83 -7 -83 -11 0 -1
-16 -3 -35 -4 -19 -1 -42 -6 -49 -10 -10 -7 -12 -5 -6 4 5 9 4 11 -3 6 -16
-10 -49 -16 -94 -18 -21 -1 -38 -4 -38 -7 0 -3 -15 -6 -33 -7 -64 -2 -127 -9
-127 -14 0 -3 -21 -6 -47 -8 -25 -2 -54 -7 -65 -13 -12 -7 -18 -6 -18 1 0 7
-6 8 -17 2 -10 -5 -26 -8 -35 -7 -10 2 -18 0 -18 -3 0 -4 -10 -7 -22 -8 -13 0
-48 -4 -78 -8 -30 -5 -65 -9 -77 -9 -13 -1 -23 -6 -23 -11 0 -6 -5 -4 -10 4
-5 8 -10 10 -10 4 0 -6 -13 -11 -30 -12 -69 -5 -80 -6 -80 -12 0 -4 -12 -7
-27 -7 -16 0 -45 -3 -65 -7 -57 -9 -107 -17 -137 -21 -14 -2 -26 -4 -26 -5 0
-1 -13 -4 -30 -5 -16 -2 -39 -6 -50 -8 -34 -8 -109 -21 -125 -22 -8 0 -21 -4
-29 -9 -11 -7 -12 -6 -6 5 7 11 6 12 -6 3 -8 -7 -32 -14 -54 -17 -96 -14 -111
-17 -135 -22 -42 -10 -84 -17 -107 -18 -13 -1 -23 -5 -23 -9 0 -5 -11 -6 -25
-4 -14 3 -25 1 -25 -3 0 -4 -10 -7 -22 -6 -13 1 -34 -2 -46 -7 -13 -4 -40 -10
-60 -13 -49 -6 -137 -22 -137 -25 0 -1 -9 -3 -20 -5 -11 -2 -49 -9 -85 -16
-36 -7 -71 -12 -77 -12 -7 0 -13 -3 -13 -7 0 -3 -10 -7 -22 -7 -24 -1 -83 -11
-83 -13 0 -3 -39 -10 -60 -12 -11 -1 -26 -6 -34 -12 -12 -9 -13 -8 -6 4 7 12
6 13 -6 4 -12 -10 -102 -33 -194 -50 -11 -2 -37 -7 -57 -12 -20 -6 -39 -7 -42
-4 -4 3 -6 1 -6 -4 0 -6 -10 -11 -22 -11 -45 -3 -108 -16 -108 -22 0 -4 -10
-7 -22 -8 -24 -1 -55 -8 -90 -19 -11 -3 -30 -8 -41 -10 -69 -12 -87 -17 -87
-23 0 -4 -12 -6 -27 -6 -16 1 -32 -1 -38 -4 -5 -3 -21 -7 -34 -9 -14 -2 -33
-8 -43 -13 -10 -5 -23 -7 -28 -4 -6 3 -10 1 -10 -4 0 -6 -3 -10 -7 -9 -16 4
-93 -14 -93 -21 0 -4 -10 -7 -22 -6 -13 1 -27 0 -33 -4 -5 -3 -19 -7 -30 -8
-11 -2 -27 -6 -35 -10 -8 -3 -24 -7 -35 -8 -11 0 -30 -7 -42 -13 -13 -7 -23
-11 -23 -8 0 2 -28 -4 -62 -14 -34 -11 -65 -17 -70 -14 -4 3 -8 0 -8 -7 0 -7
-3 -9 -7 -6 -3 4 -12 2 -20 -4 -7 -6 -13 -8 -13 -4 0 4 -8 1 -17 -6 -15 -12
-16 -12 -8 1 7 12 6 13 -6 4 -8 -6 -43 -19 -79 -28 -36 -9 -72 -20 -80 -23 -8
-3 -20 -7 -26 -8 -6 -2 -38 -11 -70 -21 -33 -10 -63 -19 -69 -19 -26 -4 -65
-18 -65 -24 0 -3 -10 -7 -22 -7 -29 -2 -50 -8 -64 -16 -6 -4 -26 -10 -45 -13
-18 -3 -36 -9 -39 -13 -3 -4 -12 -7 -20 -7 -8 1 -25 -5 -37 -13 -13 -8 -23
-12 -23 -8 0 3 -25 -3 -55 -15 -30 -11 -63 -21 -75 -22 -11 -1 -20 -4 -20 -8
0 -7 -68 -24 -82 -21 -5 1 -8 -2 -8 -7 0 -5 -15 -12 -32 -16 -18 -4 -62 -18
-96 -32 -35 -13 -72 -25 -83 -26 -10 -1 -19 -4 -19 -8 0 -5 -37 -17 -72 -23
-3 -1 -10 -4 -14 -8 -4 -5 -16 -8 -26 -8 -12 0 -16 -4 -12 -12 4 -6 3 -8 -3
-5 -5 3 -45 -7 -89 -24 -43 -17 -83 -32 -89 -33 -5 -2 -23 -8 -40 -15 -16 -6
-50 -19 -75 -28 -25 -10 -47 -19 -50 -22 -3 -4 -12 -7 -20 -8 -20 -2 -84 -26
-90 -34 -3 -4 -24 -12 -47 -19 -24 -7 -43 -17 -43 -22 0 -4 -3 -7 -7 -7 -5 1
-11 0 -15 -1 -5 -1 -11 -3 -15 -5 -10 -2 -38 -14 -83 -33 -19 -8 -37 -16 -40
-16 -3 -1 -21 -9 -40 -18 -32 -16 -108 -49 -120 -53 -32 -11 -177 -79 -360
-168 -80 -40 -148 -70 -152 -69 -5 1 -8 -2 -8 -7 0 -7 -36 -22 -49 -20 -2 0
-7 -3 -10 -8 -5 -8 -56 -35 -193 -106 -21 -10 -38 -23 -38 -28 0 -5 -3 -8 -7
-7 -12 4 -73 -26 -73 -34 0 -5 -6 -8 -12 -8 -7 0 -38 -16 -68 -34 -30 -19 -57
-33 -61 -30 -4 2 -9 -3 -13 -11 -3 -8 -12 -15 -21 -15 -8 0 -15 -4 -15 -10 0
-5 -4 -10 -9 -10 -5 0 -38 -18 -72 -40 -35 -22 -79 -48 -96 -57 -18 -9 -33
-20 -33 -25 0 -4 -5 -8 -12 -8 -6 0 -26 -11 -45 -26 -18 -14 -33 -21 -33 -17
0 4 -4 3 -8 -3 -7 -11 -75 -58 -118 -82 -13 -7 -24 -17 -24 -23 0 -5 -5 -9
-10 -9 -11 0 -43 -22 -154 -105 -30 -22 -64 -47 -76 -55 -12 -8 -28 -20 -34
-25 -6 -6 -42 -35 -81 -65 -38 -30 -75 -59 -81 -65 -6 -5 -30 -26 -54 -45 -23
-19 -51 -43 -63 -52 -11 -10 -24 -18 -29 -18 -5 0 -7 -4 -4 -9 3 -5 -4 -11
-15 -14 -13 -4 -18 -10 -13 -18 4 -7 3 -10 -3 -6 -6 4 -21 -6 -35 -21 -41 -45
-129 -122 -140 -122 -5 0 -7 -4 -4 -8 3 -5 -4 -15 -16 -23 -12 -8 -33 -27 -47
-43 -14 -16 -32 -34 -39 -40 -7 -6 -21 -19 -30 -29 -9 -10 -33 -35 -52 -56
-19 -20 -62 -67 -95 -105 -33 -37 -69 -78 -80 -90 -11 -12 -29 -35 -40 -50
-11 -15 -29 -38 -40 -50 -11 -13 -28 -34 -37 -47 -17 -24 -22 -30 -77 -102
-16 -21 -44 -61 -62 -90 -19 -29 -37 -53 -41 -55 -5 -2 -8 -8 -8 -13 0 -6 -5
-15 -10 -22 -23 -27 -70 -103 -70 -113 0 -5 -8 -19 -17 -30 -10 -10 -29 -41
-42 -69 -14 -27 -27 -52 -30 -55 -4 -3 -17 -29 -30 -57 -14 -29 -28 -53 -33
-53 -5 0 -7 -4 -4 -8 6 -9 -33 -93 -47 -103 -5 -3 -8 -10 -8 -15 1 -5 -7 -27
-16 -49 -9 -22 -18 -44 -18 -50 -1 -5 -6 -19 -12 -30 -8 -16 -42 -109 -48
-135 -3 -11 -17 -46 -31 -77 -10 -25 -11 -33 -1 -33 8 0 9 -3 1 -8 -6 -4 -15
-20 -19 -37 -4 -16 -9 -34 -11 -40 -5 -18 -36 -160 -40 -180 -1 -11 -5 -31 -8
-44 -3 -13 -6 -41 -8 -62 -1 -22 -5 -39 -8 -39 -4 0 -6 -25 -6 -55 1 -30 -1
-55 -4 -55 -3 0 -6 -39 -7 -87 -1 -49 -2 -98 -2 -110 -1 -16 -11 -27 -34 -38
-34 -16 -80 -41 -121 -68 -14 -10 -26 -14 -26 -10 0 5 -5 0 -11 -9 -5 -10 -17
-18 -24 -18 -8 0 -15 -4 -15 -10 0 -5 -8 -10 -18 -10 -11 0 -27 -9 -37 -20
-10 -11 -22 -20 -26 -20 -5 0 -17 -7 -26 -15 -10 -8 -22 -15 -27 -14 -5 0 -12
-3 -15 -8 -11 -15 -108 -83 -119 -83 -6 0 -18 -10 -27 -22 -8 -13 -19 -23 -23
-22 -4 0 -11 -4 -17 -8 -5 -5 -48 -36 -95 -70 -47 -35 -91 -68 -98 -75 -7 -7
-16 -13 -20 -13 -4 0 -23 -15 -43 -33 -20 -18 -50 -43 -68 -57 -51 -40 -108
-88 -216 -185 -12 -11 -38 -35 -58 -53 -21 -18 -37 -38 -37 -44 0 -6 -3 -8 -6
-5 -7 7 -244 -230 -329 -328 -81 -94 -85 -99 -116 -132 -16 -18 -29 -34 -29
-37 0 -2 -11 -17 -25 -32 -63 -74 -75 -90 -75 -99 0 -6 -9 -16 -20 -23 -11 -7
-20 -19 -20 -27 0 -8 -3 -15 -8 -15 -4 0 -18 -18 -32 -40 -14 -22 -28 -40 -32
-40 -5 0 -8 -7 -8 -15 0 -9 -7 -18 -15 -21 -8 -4 -15 -12 -15 -20 0 -8 -5 -14
-11 -14 -5 0 -8 -4 -5 -9 3 -5 -1 -14 -8 -20 -18 -15 -102 -155 -95 -159 2 -2
-4 -8 -14 -13 -9 -6 -17 -17 -17 -24 0 -8 -5 -15 -11 -15 -5 0 -8 -4 -5 -8 3
-5 -4 -19 -15 -30 -10 -12 -20 -25 -20 -29 -3 -17 -13 -39 -31 -65 -11 -16
-16 -28 -11 -28 4 0 3 -4 -3 -8 -10 -6 -30 -47 -99 -197 -44 -96 -59 -130 -61
-137 -1 -5 -3 -10 -4 -13 -1 -3 -3 -8 -4 -12 -1 -5 -10 -25 -19 -47 -9 -21
-14 -42 -11 -47 3 -5 1 -9 -5 -9 -5 0 -13 -15 -16 -32 -4 -18 -12 -39 -17 -45
-6 -7 -8 -13 -4 -13 4 0 0 -13 -9 -30 -9 -16 -13 -30 -10 -30 3 0 1 -8 -4 -18
-6 -11 -13 -32 -16 -48 -10 -47 -10 -48 -18 -61 -5 -7 -6 -13 -3 -13 3 0 1
-12 -5 -27 -7 -16 -13 -39 -14 -53 -2 -14 -4 -25 -5 -25 -2 0 -5 -15 -14 -60
-3 -16 -8 -41 -12 -55 -3 -14 -7 -34 -9 -45 -2 -11 -6 -36 -10 -55 -7 -37 -14
-86 -19 -136 -1 -17 -6 -37 -11 -44 -6 -9 -4 -11 6 -5 11 7 12 6 4 -6 -15 -20
-19 -99 -19 -384 0 -252 4 -372 13 -390 3 -5 6 -26 7 -46 1 -21 6 -55 9 -76 4
-21 7 -45 7 -53 0 -8 2 -22 5 -30 3 -8 7 -28 8 -45 1 -16 3 -30 5 -30 1 0 3
-15 5 -33 2 -19 7 -41 11 -50 4 -10 8 -26 9 -37 0 -11 3 -24 7 -30 3 -5 4 -18
3 -27 -2 -10 0 -18 4 -18 6 0 29 -92 31 -122 1 -4 8 -27 16 -50 9 -24 18 -52
19 -63 2 -11 10 -37 19 -57 9 -21 16 -40 16 -43 1 -21 14 -65 20 -65 3 0 7 -6
8 -12 1 -21 7 -42 13 -53 4 -5 12 -28 19 -50 7 -22 17 -46 23 -52 5 -7 6 -13
2 -13 -4 0 0 -11 9 -25 9 -14 14 -25 10 -25 -3 0 1 -11 10 -25 9 -14 14 -25
11 -25 -3 0 2 -15 12 -32 9 -18 18 -35 19 -38 9 -33 28 -70 36 -70 5 0 7 -4 4
-8 -2 -4 6 -29 19 -55 14 -26 21 -47 17 -47 -4 0 -2 -4 4 -8 12 -8 59 -104 56
-115 -1 -4 3 -7 8 -7 6 0 10 -6 10 -14 0 -7 7 -19 15 -26 9 -7 13 -15 11 -18
-3 -3 3 -17 13 -31 10 -14 24 -41 32 -59 8 -17 17 -32 21 -32 5 0 8 -4 8 -10
0 -9 68 -122 88 -146 5 -5 15 -21 22 -35 7 -13 16 -26 19 -29 6 -5 88 -124
140 -203 13 -20 29 -37 33 -37 5 0 7 -4 3 -9 -3 -5 3 -16 12 -23 10 -7 23 -20
28 -29 29 -47 120 -171 150 -205 6 -6 21 -26 35 -43 14 -17 36 -44 50 -60 14
-16 36 -43 49 -59 14 -17 29 -29 33 -26 5 3 6 10 2 15 -3 5 0 16 6 24 7 8 10
24 7 34 -3 11 -1 21 3 23 5 2 11 19 13 38 3 19 6 36 7 38 2 1 4 11 5 22 1 11
4 23 5 28 2 4 4 12 5 17 2 6 4 12 5 15 5 15 12 48 13 68 0 12 5 22 10 22 5 0
7 11 5 25 -3 13 -1 26 4 27 8 3 19 38 21 71 1 9 6 17 11 17 5 0 7 3 3 6 -3 4
0 22 8 41 8 19 14 37 13 41 -1 4 1 14 5 22 7 20 31 94 32 100 0 3 4 11 8 18 5
6 5 12 1 12 -4 0 1 9 11 20 10 11 16 23 12 26 -3 3 3 26 13 50 11 24 19 45 19
47 -1 4 23 63 36 91 8 16 12 32 9 37 -3 5 0 9 6 9 6 0 8 5 5 10 -3 6 -1 10 4
10 6 0 10 3 9 8 0 4 7 25 17 47 10 22 18 45 18 52 0 7 6 14 14 17 7 3 13 14
13 25 0 11 5 23 10 26 6 4 8 10 5 15 -3 4 2 11 10 14 8 3 14 9 13 13 -2 11 24
66 36 75 5 3 11 14 12 24 2 9 9 21 16 25 7 5 10 9 5 9 -8 0 64 113 76 118 4 2
7 8 7 14 0 5 12 26 27 46 16 20 31 41 35 47 4 5 26 30 48 55 22 25 42 53 46
63 3 9 10 15 15 12 5 -4 9 -2 9 4 0 5 22 31 49 58 65 65 171 162 171 157 0 -4
40 29 66 54 7 6 17 12 23 12 6 0 11 5 11 10 0 6 5 10 11 10 7 0 17 7 23 14 6
8 17 16 25 18 7 2 25 13 39 25 13 13 28 20 33 17 5 -3 9 -1 9 4 0 5 12 15 28
22 15 8 39 23 55 33 15 10 27 15 27 10 0 -4 7 0 14 10 8 10 17 18 20 19 19 0
46 12 46 19 0 5 8 9 18 9 10 0 27 7 38 15 10 8 27 15 37 15 9 0 17 4 17 10 0
5 3 9 8 8 4 -1 18 4 32 9 86 37 180 70 184 65 3 -3 6 0 6 6 0 7 3 11 8 10 7
-2 82 18 117 32 11 4 23 8 27 9 4 1 26 8 48 16 22 8 42 14 45 15 3 0 6 0 8 1
9 3 45 10 60 11 9 1 17 5 17 8 0 3 8 6 18 6 18 1 34 4 117 24 28 7 60 12 73
12 12 0 22 3 22 7 0 6 21 9 93 14 15 1 27 4 27 7 0 4 10 6 23 7 12 0 38 4 57
7 40 8 99 16 151 20 20 2 40 5 45 8 5 3 31 4 57 4 27 -1 50 1 52 4 4 6 49 10
128 13 15 0 27 5 27 10 0 5 6 4 14 -2 8 -7 17 -8 19 -4 3 5 21 8 39 8 l33 -1
0 -89 c0 -50 -4 -93 -10 -97 -6 -5 -5 -8 3 -8 8 0 10 -5 6 -12 -5 -7 -9 -47
-10 -88 -1 -41 -3 -75 -4 -75 -1 0 -8 -93 -13 -187 -1 -25 -5 -50 -9 -54 -5
-4 -3 -13 3 -21 9 -10 8 -17 -1 -28 -9 -11 -9 -15 -1 -15 7 0 9 -5 4 -12 -4
-7 -8 -35 -9 -63 -1 -27 -5 -106 -10 -175 -4 -69 -8 -144 -8 -167 -1 -24 -3
-43 -6 -43 -3 0 -5 -30 -4 -68 0 -37 -4 -73 -9 -79 -6 -8 -6 -13 0 -13 5 0 9
-9 9 -20 0 -11 -3 -20 -6 -20 -3 0 -6 -21 -6 -47 -3 -135 -10 -209 -19 -215
-6 -5 -5 -8 3 -8 7 0 10 -5 6 -11 -3 -6 -8 -43 -10 -83 -8 -169 -14 -262 -18
-281 -2 -11 2 -26 8 -34 8 -11 8 -13 0 -8 -8 4 -12 -15 -13 -61 -4 -110 -7
-137 -16 -151 -6 -10 -4 -12 5 -6 10 6 11 4 5 -11 -4 -10 -8 -58 -9 -106 0
-49 -3 -88 -6 -88 -3 0 -6 -30 -7 -68 -2 -99 -7 -145 -17 -161 -7 -10 -5 -12
4 -6 9 6 10 2 5 -15 -6 -17 -4 -21 6 -14 11 6 11 4 0 -9 -9 -12 -15 -47 -16
-102 -1 -47 -5 -88 -8 -91 -3 -4 -2 -15 3 -25 6 -10 7 -20 2 -23 -4 -2 -9 -35
-10 -72 -2 -37 -5 -72 -8 -76 -3 -4 1 -8 8 -8 8 0 9 -3 3 -8 -6 -4 -12 -20
-12 -37 -1 -16 -5 -82 -9 -145 -3 -63 -7 -152 -8 -197 0 -46 -3 -83 -6 -83 -3
0 -7 -41 -8 -90 -2 -104 -4 -112 -17 -122 -6 -5 -6 -8 2 -8 11 0 9 -42 -4 -63
-4 -6 -1 -7 6 -2 10 5 11 3 4 -11 -5 -11 -9 -49 -9 -86 1 -38 -1 -68 -4 -68
-3 0 -5 -24 -6 -53 0 -28 -4 -106 -9 -172 -4 -66 -9 -142 -9 -170 -1 -27 -5
-55 -9 -62 -4 -6 -3 -14 3 -18 6 -4 7 -12 3 -18 -4 -7 -8 -32 -9 -57 -2 -50
-11 -201 -20 -325 -3 -44 -7 -116 -9 -160 -2 -44 -4 -80 -5 -80 -1 0 -3 -8 -5
-17 -2 -10 1 -18 6 -18 6 0 7 -6 2 -12 -8 -13 -10 -31 -16 -159 -2 -42 -6 -80
-8 -85 -3 -5 -4 -48 -4 -96 0 -52 -4 -88 -10 -88 -5 0 -3 -5 5 -10 8 -5 11
-10 5 -10 -6 0 -11 -32 -12 -73 -1 -39 -5 -103 -8 -142 -3 -38 -7 -108 -10
-155 -3 -47 -8 -130 -11 -185 -4 -55 -7 -115 -7 -132 -1 -18 -6 -33 -11 -33
-6 0 -5 -5 1 -11 6 -6 8 -23 5 -38 -4 -14 -7 -50 -7 -78 0 -29 -4 -53 -10 -53
-5 0 -3 -5 5 -10 9 -6 11 -13 5 -18 -5 -4 -10 -40 -10 -80 0 -41 -3 -76 -7
-78 -3 -2 -3 -18 2 -34 5 -16 5 -32 1 -34 -7 -5 -14 -96 -14 -168 1 -17 -4
-25 -10 -21 -5 3 -7 1 -3 -5 4 -6 17 -8 34 -3 15 3 53 6 84 6 32 0 58 3 58 6
0 3 24 5 53 5 28 0 79 4 112 8 70 9 148 16 225 20 30 2 64 7 74 11 14 6 17 5
11 -4 -6 -10 -3 -11 12 -2 11 5 50 11 87 13 36 1 66 7 66 11 0 5 6 4 13 -2 8
-6 17 -8 21 -4 4 4 26 8 49 9 48 3 155 11 242 20 33 3 74 7 90 8 17 0 36 5 43
9 7 5 12 4 12 -3 0 -7 6 -8 18 -2 9 5 43 8 74 8 32 -1 58 2 58 5 0 4 15 7 33
7 17 0 66 3 107 7 41 4 93 8 116 9 22 1 46 6 52 10 7 4 12 2 12 -4 0 -6 5 -8
12 -4 14 9 26 10 103 15 28 1 53 7 57 13 5 7 8 7 8 -2 0 -9 6 -10 18 -4 9 4
41 7 70 7 28 -1 52 1 52 4 0 3 28 7 63 8 34 0 85 4 112 7 28 4 77 8 110 11 33
2 60 4 60 5 0 1 20 3 45 5 43 3 141 11 245 21 87 8 148 13 224 18 40 3 80 11
89 18 13 11 14 11 8 0 -6 -10 0 -11 26 -6 18 3 62 8 98 10 114 8 233 18 325
28 12 1 27 6 34 11 10 6 12 4 6 -5 -5 -9 -2 -10 14 -5 23 7 35 8 176 19 44 4
103 9 130 13 28 3 74 6 102 8 29 1 56 4 59 8 4 4 13 2 21 -4 9 -9 13 -8 13 0
0 6 12 11 28 10 26 -1 147 8 227 17 22 3 63 7 90 9 28 2 82 7 120 10 120 11
168 15 230 20 99 8 167 14 228 20 32 4 75 7 95 8 20 1 43 6 50 10 7 5 12 3 12
-3 0 -6 5 -8 10 -5 6 4 34 8 63 11 29 2 77 7 107 10 30 3 73 7 96 8 22 1 46 6
52 10 7 4 12 2 12 -5 0 -7 4 -8 13 -2 6 5 26 8 42 8 17 -1 41 2 54 7 17 6 27
5 33 -4 4 -7 8 -8 8 -2 0 6 26 12 63 13 34 1 66 6 71 11 5 5 16 5 27 0 10 -6
20 -7 22 -2 3 4 37 7 76 7 39 0 71 3 71 6 0 3 19 5 43 5 23 -1 46 0 52 3 5 3
37 7 70 9 96 6 140 9 140 12 0 1 25 3 55 5 30 2 80 6 110 10 30 3 87 8 125 11
127 9 134 10 141 17 4 3 15 2 25 -4 11 -5 19 -6 19 -1 0 4 15 8 33 9 17 0 61
4 97 7 36 4 90 8 120 10 30 2 55 5 55 6 0 1 32 3 72 5 39 1 76 6 82 9 6 4 11
1 11 -6 0 -10 2 -10 8 -1 4 7 38 13 80 15 39 2 72 7 72 12 0 5 6 3 13 -3 8 -6
17 -8 21 -4 4 4 26 9 49 10 86 4 137 10 143 16 3 3 17 2 30 -3 16 -6 24 -6 24
1 0 6 5 7 11 3 6 -3 15 0 20 7 5 8 9 9 9 3 0 -7 15 -9 44 -4 24 3 52 5 62 4
10 -2 26 2 36 7 12 7 18 6 18 -1 0 -7 5 -8 13 -3 6 4 26 8 42 9 17 2 62 5 100
9 133 12 160 14 220 19 67 4 211 17 231 20 7 1 16 5 20 9 4 3 14 2 24 -3 10
-5 20 -6 24 -3 4 4 26 8 49 9 23 1 78 5 122 9 44 5 95 9 113 9 17 0 32 3 32 6
0 3 24 6 53 7 78 3 176 10 232 17 62 7 158 16 248 21 37 3 72 7 78 10 5 4 9 0
9 -7 0 -9 3 -9 8 -2 4 6 14 11 22 11 8 0 51 4 95 8 109 10 148 13 231 19 38 2
86 7 105 10 19 3 66 8 104 10 39 3 70 5 70 6 0 1 25 3 55 5 30 2 80 6 110 10
106 11 176 16 238 18 34 1 62 4 62 7 0 5 81 12 162 13 20 0 35 3 33 6 -2 4 22
7 53 7 32 1 86 4 122 8 83 8 155 14 233 21 34 3 82 7 107 9 25 3 77 7 115 10
39 3 90 8 115 11 25 2 72 7 105 10 33 2 87 7 120 11 33 3 80 7 105 9 25 1 45
4 45 5 0 1 23 2 52 3 28 1 55 5 59 9 4 4 13 3 21 -3 7 -6 13 -7 13 -3 0 5 24
10 53 11 28 1 72 4 97 8 25 3 72 7 105 9 33 3 60 5 60 6 0 1 29 3 65 6 36 2
85 6 110 9 109 11 198 18 233 18 20 0 37 3 37 6 0 3 28 7 63 8 90 3 111 6 119
18 5 7 8 6 8 -1 0 -6 12 -10 28 -8 68 9 132 15 187 19 81 6 169 14 230 21 28
2 73 7 100 9 125 10 185 15 250 20 39 4 84 8 100 9 17 1 36 5 43 9 7 5 12 3
12 -3 0 -7 5 -8 13 -3 6 4 32 9 57 10 89 5 185 14 196 17 10 4 32 0 99 -17 21
-6 111 -39 127 -48 10 -5 25 -9 33 -9 8 0 15 -4 15 -9 0 -4 10 -7 23 -7 12 1
29 -3 37 -10 8 -6 27 -14 42 -18 15 -3 37 -10 50 -15 13 -5 25 -9 28 -9 4 0
35 -11 105 -38 11 -4 23 -6 28 -6 4 1 7 -3 7 -9 0 -6 6 -9 12 -7 7 3 24 -1 37
-8 14 -7 28 -11 33 -8 4 3 8 0 8 -5 0 -6 3 -10 8 -10 4 1 10 0 15 -1 4 -1 10
-3 15 -5 4 -1 14 -4 22 -7 8 -3 44 -16 80 -28 36 -12 74 -26 85 -30 11 -5 52
-19 90 -32 39 -12 73 -26 76 -31 3 -5 8 -8 10 -6 2 1 15 -1 29 -5 14 -5 36
-10 50 -12 14 -2 26 -8 28 -14 2 -5 14 -10 26 -10 12 0 32 -7 44 -16 13 -9 26
-14 29 -11 3 3 30 -5 61 -18 32 -13 85 -31 119 -42 35 -10 63 -22 63 -26 0 -5
4 -5 10 -2 5 3 10 1 10 -6 0 -7 3 -10 6 -7 6 7 35 -1 114 -32 30 -12 63 -23
72 -25 9 -2 26 -8 37 -14 11 -6 31 -12 45 -13 15 -1 26 -6 26 -10 0 -4 16 -10
35 -14 19 -3 38 -10 41 -15 3 -5 13 -9 22 -9 9 0 28 -6 42 -13 14 -7 32 -12
40 -12 8 0 21 -5 28 -12 7 -7 24 -13 37 -13 13 0 27 -5 30 -10 4 -6 10 -8 15
-5 5 3 11 1 15 -5 3 -5 17 -10 31 -10 13 0 24 -4 24 -10 0 -5 10 -10 23 -10
13 0 28 -5 35 -12 7 -7 12 -9 12 -5 0 4 14 1 30 -8 17 -9 30 -13 30 -10 0 3
13 -1 29 -9 16 -9 31 -12 35 -9 3 4 6 1 6 -5 0 -7 3 -11 8 -11 16 3 72 -14 72
-22 0 -5 3 -8 8 -8 14 3 72 -14 78 -22 2 -4 11 -6 19 -2 8 3 15 -1 15 -8 0 -7
3 -10 6 -6 4 3 19 0 35 -8 15 -8 37 -16 48 -18 11 -2 24 -6 27 -10 4 -4 13 -7
20 -7 7 0 25 -5 41 -12 15 -6 31 -11 36 -10 4 1 7 -3 7 -9 0 -6 7 -9 15 -6 8
4 17 2 20 -4 4 -5 11 -7 16 -4 5 4 9 1 9 -5 0 -6 3 -9 8 -7 4 3 18 0 32 -6 14
-5 30 -11 35 -12 6 -2 17 -4 25 -6 8 -2 17 -6 20 -9 5 -5 63 -28 85 -34 6 -2
24 -6 40 -11 17 -4 36 -13 44 -19 8 -6 15 -10 15 -8 1 4 21 -3 80 -24 21 -8
41 -13 43 -10 3 3 12 -2 20 -10 8 -8 18 -12 23 -9 5 3 11 1 15 -5 3 -5 13 -10
22 -10 8 0 30 -7 49 -16 19 -9 37 -14 41 -10 3 3 12 -2 20 -12 9 -10 11 -11 7
-2 -6 12 -5 13 7 4 11 -9 157 -65 204 -78 6 -2 19 -6 30 -10 11 -5 31 -12 45
-16 14 -4 34 -11 45 -16 11 -4 25 -8 30 -10 20 -5 81 -28 112 -41 17 -7 37
-13 45 -13 8 0 18 -3 22 -7 4 -5 11 -8 14 -9 4 0 16 -4 27 -8 11 -5 27 -10 35
-14 8 -3 21 -4 28 -3 6 1 12 -4 12 -10 0 -7 3 -9 7 -6 3 4 12 2 20 -4 7 -6 13
-8 13 -4 0 4 6 2 14 -4 8 -6 18 -11 22 -9 5 1 27 -6 49 -16 22 -9 49 -18 60
-19 11 -1 26 -8 33 -15 8 -7 18 -10 23 -7 5 4 9 2 9 -4 0 -5 9 -8 20 -6 13 3
18 0 14 -7 -5 -7 0 -9 14 -6 12 4 22 2 22 -3 0 -5 8 -9 18 -9 10 0 23 -5 30
-12 7 -7 12 -8 12 -4 0 5 7 3 15 -4 8 -7 15 -10 15 -6 0 4 14 0 30 -9 17 -9
30 -13 30 -9 0 4 6 2 13 -4 6 -5 28 -14 47 -20 19 -5 73 -24 120 -41 47 -18
93 -34 102 -36 9 -2 25 -8 36 -14 11 -6 22 -7 26 -4 3 3 6 2 6 -4 0 -6 17 -14
38 -18 20 -4 51 -13 67 -20 59 -26 148 -54 157 -49 4 3 8 -1 8 -8 0 -7 13 -14
31 -15 17 -1 36 -6 43 -11 6 -5 29 -15 51 -21 22 -7 49 -17 60 -22 12 -6 27
-11 35 -13 8 -2 24 -6 35 -10 11 -5 37 -14 58 -22 20 -8 37 -10 37 -6 0 4 4 2
8 -4 4 -6 42 -21 85 -34 42 -13 77 -28 77 -33 0 -6 3 -8 6 -4 4 3 43 -7 87
-23 44 -17 82 -29 83 -27 2 2 -12 26 -31 55 -19 28 -35 54 -35 57 0 3 -9 15
-20 27 -11 12 -20 28 -20 35 0 7 -4 13 -8 13 -5 0 -14 11 -20 25 -7 14 -17 31
-23 38 -9 11 -40 58 -64 98 -6 9 -17 24 -24 33 -7 9 -10 16 -5 16 5 0 4 4 -2
8 -6 4 -28 33 -48 64 -19 31 -40 60 -46 63 -6 4 -8 11 -5 16 4 5 1 9 -4 9 -6
0 -11 7 -11 15 0 8 -4 15 -9 15 -5 0 -14 14 -21 30 -7 17 -17 30 -22 30 -5 0
-6 4 -3 10 3 5 2 10 -4 10 -6 0 -18 15 -27 33 -9 17 -20 34 -23 37 -3 3 -12
17 -20 32 -8 15 -23 37 -33 48 -10 11 -15 20 -11 20 4 0 -1 7 -11 15 -11 8
-17 15 -14 15 4 0 -22 43 -58 96 -35 52 -64 99 -64 105 0 5 -4 9 -10 9 -5 0
-10 7 -10 15 0 8 -4 15 -10 15 -5 0 -10 4 -10 9 0 6 -40 71 -90 145 -50 75
-90 138 -90 141 0 3 -9 15 -20 27 -11 12 -20 28 -20 35 0 7 -4 13 -10 13 -5 0
-10 7 -10 15 0 8 -4 15 -10 15 -5 0 -10 6 -10 13 0 7 -9 23 -20 35 -12 12 -18
22 -15 22 4 0 0 7 -7 15 -31 34 -38 45 -31 45 4 0 3 4 -2 8 -6 4 -35 45 -64
92 -30 47 -66 102 -80 123 -14 21 -31 45 -36 55 -25 43 -71 107 -77 110 -5 2
-8 8 -8 13 0 8 -65 110 -131 206 -16 23 -29 46 -29 52 0 6 -4 11 -10 11 -5 0
-10 6 -10 13 0 8 -9 22 -20 32 -11 10 -17 22 -14 26 3 5 0 9 -6 9 -6 0 -14 8
-17 17 -8 23 -46 77 -56 81 -4 2 -5 8 -1 13 3 5 -2 12 -10 15 -9 3 -16 11 -16
18 0 7 -7 21 -15 31 -25 33 -165 246 -165 251 0 3 -12 21 -26 40 -15 19 -23
34 -19 34 5 0 -2 8 -13 19 -12 10 -22 21 -22 25 0 6 -50 86 -60 96 -7 7 -29
42 -37 60 -4 8 -15 24 -25 34 -10 11 -18 26 -18 33 0 7 -4 13 -10 13 -5 0 -10
7 -10 15 0 8 -4 15 -10 15 -5 0 -10 5 -10 11 0 6 -11 25 -25 43 -14 18 -25 38
-25 44 0 6 -4 12 -8 14 -4 2 -18 20 -31 41 -12 20 -27 37 -32 37 -6 0 -8 4 -5
9 4 5 -6 23 -20 40 -14 17 -22 31 -17 31 4 0 3 4 -2 8 -6 4 -26 32 -45 62 -19
30 -38 57 -42 58 -5 2 -8 10 -8 18 0 8 -3 14 -8 14 -4 0 -13 13 -20 28 -6 16
-21 38 -33 50 -11 13 -17 28 -13 35 4 6 4 9 -1 5 -8 -7 -65 74 -65 92 0 4 -4
10 -8 12 -11 4 -72 97 -72 109 0 5 -4 9 -9 9 -5 0 -13 9 -16 20 -3 11 -12 26
-18 32 -17 19 -77 118 -77 128 0 5 -6 13 -14 17 -7 4 -23 27 -35 51 -12 24
-28 45 -36 49 -8 3 -13 9 -10 13 3 5 -2 15 -10 23 -8 9 -15 20 -15 25 0 5 -9
17 -20 27 -11 10 -20 24 -20 32 0 7 -4 13 -10 13 -5 0 -10 4 -10 10 0 8 -34
65 -57 95 -27 34 -83 126 -83 135 0 5 -4 10 -8 10 -4 0 -24 27 -43 60 -18 33
-37 60 -41 60 -5 0 -8 7 -8 15 0 8 -4 15 -9 15 -5 0 -11 8 -14 18 -4 9 -38 64
-77 122 -39 58 -73 113 -77 123 -3 9 -9 17 -14 17 -5 0 -9 4 -9 9 0 5 -27 50
-60 100 -33 50 -60 95 -60 100 0 5 -3 11 -7 13 -9 4 -53 65 -53 73 0 3 -9 15
-20 27 -11 12 -20 28 -20 35 0 7 -4 13 -10 13 -5 0 -10 5 -10 11 0 6 -14 32
-32 57 -17 26 -40 59 -50 74 -20 30 -58 97 -58 102 0 9 910 -10 918 -19 3 -3
11 0 19 6 10 9 13 8 13 -1 0 -10 3 -10 15 0 8 7 15 8 15 4 0 -9 23 -10 273
-15 76 -1 140 -6 143 -11 3 -4 10 -5 16 -2 17 11 88 11 88 0 0 -6 5 -5 12 2 7
7 17 8 30 1 13 -7 18 -6 18 3 0 8 3 9 8 3 4 -6 62 -11 132 -12 69 -1 195 -4
280 -7 85 -3 227 -9 315 -12 88 -3 203 -7 255 -8 52 -1 100 -5 107 -9 6 -4 14
-4 17 1 5 9 56 9 71 0 6 -3 19 -3 30 -1 11 2 25 4 30 4 60 -4 187 -10 255 -11
47 -2 91 -7 99 -14 11 -8 13 -8 7 2 -4 7 -2 12 8 12 8 0 18 -5 21 -10 4 -6 12
-7 18 -3 7 5 23 8 37 6 75 -6 330 -10 330 -5 0 3 -24 29 -52 58 -29 29 -70 71
-91 93 -21 23 -39 41 -41 41 -2 0 -55 51 -118 113 -99 96 -194 185 -359 337
-21 19 -67 60 -101 90 -34 30 -77 69 -95 87 -18 17 -33 29 -33 26 0 -3 -9 6
-21 21 -11 14 -24 26 -29 26 -4 0 -24 15 -42 32 -43 41 -138 124 -198 173 -25
20 -51 44 -57 53 -7 9 -13 13 -13 10 0 -4 -15 8 -34 25 -18 18 -53 48 -76 67
-23 19 -52 43 -64 54 -11 10 -37 30 -56 45 -19 14 -55 45 -80 68 -25 24 -53
45 -63 49 -9 3 -15 10 -12 15 4 5 0 9 -7 9 -7 0 -29 16 -49 35 -20 19 -39 31
-43 28 -3 -4 -6 2 -6 12 0 10 -3 16 -6 12 -6 -6 -33 15 -91 70 -18 17 -33 29
-33 26 0 -3 -8 4 -19 15 -10 12 -22 22 -27 22 -5 0 -28 18 -52 40 -23 22 -42
37 -42 33 0 -4 -6 0 -12 8 -7 9 -49 45 -93 80 -44 35 -81 67 -83 71 -2 5 -10
8 -18 8 -9 0 -12 5 -9 10 3 6 0 10 -7 10 -7 0 -26 12 -43 28 -16 15 -48 40
-70 56 -22 16 -47 37 -56 45 -9 9 -29 25 -45 36 -15 11 -38 29 -50 40 -12 11
-32 27 -44 35 -13 8 -33 25 -46 38 -13 13 -24 20 -24 16 0 -4 -11 5 -25 20
-13 14 -27 26 -31 26 -3 0 -18 10 -33 23 -15 12 -42 33 -61 47 -18 14 -41 32
-51 41 -10 8 -30 24 -45 35 -16 10 -40 31 -56 45 -15 15 -30 24 -33 21 -3 -3
-5 0 -5 6 0 15 13 15 26 2 10 -10 44 -21 72 -22 6 -1 12 -5 12 -10 0 -4 11 -8
24 -8 14 0 28 -5 31 -10 4 -6 10 -8 15 -5 5 3 11 1 15 -5 4 -6 10 -8 15 -5 5
3 11 1 15 -5 3 -5 17 -10 31 -10 14 0 23 -4 20 -9 -4 -5 3 -7 14 -4 12 3 20 0
20 -8 0 -7 3 -9 7 -6 3 4 12 2 20 -4 7 -6 13 -9 13 -5 0 5 19 -1 95 -30 11 -4
22 -8 25 -8 3 -1 11 -5 18 -9 6 -5 12 -6 12 -2 0 3 13 -1 29 -9 16 -9 31 -12
35 -9 3 4 6 2 6 -4 0 -5 6 -10 13 -10 6 -1 27 -6 45 -11 l32 -11 -6 32 c-3 18
-6 44 -6 60 -1 15 -4 27 -7 27 -3 0 -7 17 -8 38 -1 40 -6 68 -16 92 -4 8 -8
29 -11 45 -2 17 -5 30 -6 30 -1 0 -4 14 -6 30 -3 17 -7 37 -11 45 -3 8 -7 21
-9 28 -3 15 -54 181 -62 202 -3 8 -6 17 -7 20 -4 11 -20 52 -73 188 -30 78
-60 142 -65 142 -6 0 -8 3 -4 6 3 4 -7 33 -24 65 -16 33 -27 59 -23 59 3 0 -2
7 -10 16 -9 8 -14 20 -11 25 4 5 2 9 -3 9 -9 0 -25 37 -23 53 1 4 -3 7 -9 7
-5 0 -10 7 -10 15 0 8 -4 15 -10 15 -5 0 -10 9 -10 20 0 11 -4 20 -8 20 -5 0
-15 16 -22 35 -8 20 -20 41 -27 47 -7 5 -10 14 -7 19 3 5 0 9 -5 9 -6 0 -11 7
-11 15 0 8 -5 15 -11 15 -5 0 -7 5 -4 10 3 6 1 10 -5 10 -6 0 -9 4 -6 9 3 5
-1 14 -9 21 -8 7 -15 19 -15 26 0 8 -4 14 -9 14 -5 0 -13 10 -17 22 -3 12 -15
31 -25 42 -11 11 -19 26 -19 33 0 7 -4 13 -9 13 -5 0 -11 8 -15 18 -8 26 -46
88 -46 77 0 -12 -67 92 -76 118 -4 9 -9 17 -13 17 -4 0 -25 27 -47 60 -21 33
-42 60 -46 60 -5 0 -8 6 -8 13 0 7 -9 19 -20 27 -11 8 -20 20 -20 26 0 6 -7
18 -16 25 -9 8 -27 30 -40 49 -12 19 -33 47 -46 61 -13 15 -34 41 -48 59 -28
38 -72 92 -80 100 -5 5 -104 121 -123 145 -4 6 -30 35 -58 65 -27 30 -49 58
-49 63 0 4 -4 5 -10 2 -5 -3 -10 1 -10 9 0 9 -4 16 -9 16 -5 0 -13 9 -16 20
-3 11 -11 20 -16 20 -6 0 -17 7 -25 15 -9 8 -13 15 -11 15 3 0 -33 39 -79 87
-46 48 -84 91 -84 95 0 5 -4 6 -10 3 -5 -3 -10 2 -10 11 0 10 -3 15 -6 12 -5
-6 -54 38 -54 49 0 8 -63 63 -72 63 -5 0 -8 5 -8 11 0 6 -7 17 -15 25 -8 9
-15 14 -15 12 0 -2 -56 50 -125 117 -69 66 -145 137 -168 158 -24 20 -70 61
-101 90 -32 28 -76 68 -98 87 -22 19 -53 47 -69 63 -16 15 -33 27 -37 27 -4 0
-14 9 -22 20 -8 11 -18 20 -21 20 -4 0 -23 15 -42 33 -35 33 -42 39 -116 97
-25 19 -52 42 -61 50 -10 8 -26 22 -36 30 -81 63 -170 136 -172 143 -2 4 -10
7 -18 7 -8 0 -14 4 -14 8 0 4 -12 15 -27 24 -16 10 -40 27 -55 40 -14 13 -36
30 -48 38 -21 14 -39 29 -87 70 -12 10 -23 17 -25 14 -3 -2 -15 7 -28 21 -13
14 -29 25 -37 25 -7 0 -13 3 -13 8 0 4 -21 21 -45 37 -25 17 -45 33 -45 38 0
4 -7 7 -15 7 -8 0 -15 5 -15 10 0 6 -7 10 -15 10 -8 0 -15 3 -15 8 0 4 -16 16
-35 26 -19 11 -35 23 -35 27 0 4 -10 11 -22 15 -13 4 -30 14 -38 23 -16 17
-44 36 -70 48 -29 13 -41 31 -25 37 8 3 17 1 19 -3 5 -8 63 -13 154 -14 17 0
32 -5 32 -10 0 -5 6 -5 13 2 8 6 16 8 20 5 5 -5 38 -8 197 -18 30 -2 55 -4 55
-5 0 -2 29 -4 65 -7 187 -11 220 -14 280 -20 36 -3 84 -7 108 -7 23 0 42 -5
42 -10 0 -5 6 -5 13 2 8 6 17 8 20 5 6 -6 40 -9 197 -19 41 -2 77 -5 80 -6 3
0 19 -2 35 -3 17 -2 33 -4 38 -5 4 -1 28 -3 55 -3 26 0 55 -4 64 -9 10 -6 19
-5 23 1 4 6 11 8 17 4 5 -3 33 -8 61 -10 29 -1 87 -5 129 -8 l77 -5 -54 87
c-30 48 -58 92 -62 97 -5 6 -24 35 -43 65 -19 30 -43 63 -52 72 -10 10 -18 21
-18 26 0 4 -10 19 -23 33 -12 15 -33 41 -47 59 -14 18 -31 39 -37 46 -7 7 -13
16 -13 21 -1 4 -19 26 -40 48 -22 22 -40 43 -40 46 0 4 -21 30 -47 58 -146
157 -254 271 -257 271 -1 0 -40 37 -87 83 -99 95 -136 129 -239 216 -41 36
-76 68 -78 73 -2 4 -8 8 -14 8 -6 0 -24 13 -39 30 -16 16 -29 28 -29 25 0 -7
-114 86 -118 96 -2 5 -8 9 -13 9 -10 0 -24 10 -60 43 -10 9 -22 17 -25 17 -8
0 -87 61 -96 75 -5 6 -8 6 -8 0 0 -5 -5 -2 -11 8 -5 9 -14 17 -20 17 -5 0 -19
9 -31 20 -12 11 -27 20 -34 20 -6 0 -14 7 -18 15 -3 8 -12 15 -20 15 -8 0 -16
3 -18 8 -4 10 -187 132 -199 132 -5 0 -9 3 -9 8 0 4 -9 12 -19 17 -45 23 -177
108 -183 119 -4 6 -8 7 -8 2 0 -5 -8 -2 -17 7 -10 8 -25 17 -33 19 -8 2 -22
10 -32 19 -10 9 -31 22 -46 30 -15 7 -46 26 -69 41 -23 15 -49 28 -57 28 -9 0
-16 4 -16 8 0 5 -16 14 -35 22 -19 8 -35 17 -35 21 0 4 -12 12 -27 18 -16 6
-48 23 -73 37 -25 14 -110 60 -190 101 -80 41 -151 80 -157 85 -7 6 -13 7 -13
3 0 -5 -8 -1 -17 7 -15 13 -44 27 -63 33 -3 0 -29 13 -57 28 -29 15 -55 27
-58 27 -3 0 -38 18 -79 39 -41 22 -77 37 -80 34 -3 -4 -6 -2 -6 4 0 5 -18 16
-40 23 -22 7 -40 16 -40 20 0 4 -6 7 -12 7 -7 0 -42 14 -78 31 -36 18 -70 32
-77 32 -7 0 -13 4 -13 8 0 4 -10 9 -22 9 -13 1 -24 7 -26 13 -2 5 -10 10 -18
10 -8 0 -26 7 -39 16 -14 9 -25 13 -25 9 0 -4 -7 -1 -16 6 -9 7 -21 14 -28 15
-6 1 -29 10 -51 20 -22 10 -43 17 -47 16 -5 -1 -8 2 -8 8 0 5 -8 10 -17 11
-10 0 -40 11 -68 24 -27 13 -53 21 -57 19 -5 -3 -8 -1 -8 3 0 5 -17 15 -37 22
-21 7 -57 21 -80 32 -24 10 -50 19 -58 19 -8 0 -15 5 -15 12 0 6 -3 8 -6 5 -4
-3 -16 -1 -28 5 -11 7 -25 13 -31 14 -5 1 -26 9 -46 18 -20 8 -39 12 -43 9 -3
-4 -6 -2 -6 4 0 5 -23 16 -51 23 -27 8 -52 18 -55 22 -3 4 -14 8 -25 8 -10 0
-19 4 -19 8 0 5 -6 9 -12 9 -15 1 -75 22 -100 34 -10 5 -25 9 -33 9 -8 0 -15
5 -15 12 0 6 -3 9 -6 6 -6 -6 -99 24 -111 35 -3 4 -17 7 -29 7 -13 0 -26 5
-29 10 -3 6 -17 10 -31 10 -13 0 -24 4 -24 9 0 5 -15 12 -32 16 -18 4 -40 10
-48 12 -8 3 -23 5 -32 6 -10 1 -18 4 -18 8 0 7 -74 32 -95 32 -8 0 -16 6 -19
13 -3 8 -12 11 -21 8 -8 -4 -21 -2 -28 4 -6 5 -24 12 -39 16 -15 3 -40 11 -55
18 -15 6 -39 13 -53 15 -14 2 -27 8 -28 14 -2 5 -8 7 -13 3 -5 -3 -23 2 -41
10 -17 9 -39 16 -49 16 -10 0 -20 4 -24 9 -3 6 -14 8 -25 6 -11 -2 -20 0 -20
4 0 7 -66 28 -110 35 -9 1 -21 5 -28 10 -6 4 -20 9 -29 11 -10 3 -43 12 -73
20 -30 9 -62 18 -70 20 -8 2 -43 13 -77 23 -34 11 -64 17 -67 14 -3 -3 -6 1
-6 8 0 7 -3 11 -6 7 -3 -3 -25 0 -49 8 -24 7 -46 10 -49 7 -4 -3 -6 0 -6 6 0
7 -11 12 -25 12 -14 0 -25 4 -25 10 0 5 -7 7 -15 4 -8 -4 -21 -1 -29 5 -7 6
-16 8 -19 5 -3 -3 -12 -2 -19 2 -7 5 -19 10 -25 11 -7 2 -19 4 -25 6 -7 1 -19
7 -27 11 -11 7 -12 6 -6 -5 7 -11 6 -12 -6 -3 -15 12 -45 22 -94 30 -16 3 -35
10 -41 15 -6 5 -14 6 -17 3 -3 -3 -12 -2 -19 2 -7 5 -20 9 -28 9 -8 0 -20 4
-26 8 -7 4 -28 8 -48 9 -20 2 -36 6 -36 11 0 4 -13 7 -28 7 -16 0 -32 3 -36 7
-3 4 -12 8 -19 9 -7 1 -25 5 -42 9 -16 3 -36 7 -42 7 -7 1 -13 4 -13 8 0 4
-10 6 -22 5 -13 -1 -27 0 -33 4 -11 6 -14 7 -60 16 -16 3 -39 9 -50 12 -11 4
-28 8 -37 9 -10 1 -19 2 -20 4 -2 1 -19 4 -38 7 -19 2 -37 8 -40 12 -3 5 -16
7 -29 6 -21 -2 -16 6 33 52 31 29 55 53 52 53 -2 0 38 44 90 97 52 53 94 100
94 105 0 4 7 8 15 8 8 0 15 3 15 8 0 4 20 29 45 56 25 27 45 53 45 58 0 5 5 6
10 3 6 -3 10 -2 10 2 0 8 28 41 141 161 27 29 49 58 49 63 0 6 5 7 10 4 6 -3
10 -1 10 4 0 6 26 38 58 72 31 34 71 76 87 94 17 18 55 59 85 93 128 142 187
207 228 248 23 24 42 46 42 48 0 3 20 25 45 50 25 26 45 51 45 57 0 5 5 7 10
4 6 -3 10 -2 10 4 0 5 12 22 28 38 40 42 56 63 45 63 -5 0 -12 -2 -15 -5z"/>
</g>
</svg>
